<svg width="391" height="306" viewBox="0 0 391 306" fill="none" xmlns="http://www.w3.org/2000/svg">
<path d="M0 132.303C0 119.129 10.5207 108.45 23.4987 108.45H35.248C48.226 108.45 58.7467 119.129 58.7467 132.303V255.147C58.7467 268.321 48.226 279 35.248 279H23.4987C10.5207 279 0 268.321 0 255.147V132.303Z" fill="#F38181"/>
<path d="M58.7467 48.8165C58.7467 65.2837 45.5958 78.6331 29.3734 78.6331C13.1509 78.6331 0 65.2837 0 48.8165C0 32.3493 13.1509 19 29.3734 19C45.5958 19 58.7467 32.3493 58.7467 48.8165Z" fill="#F38181"/>
<path d="M138.522 24.4495C138.522 37.9527 127.212 48.8991 113.261 48.8991C99.3098 48.8991 88 37.9527 88 24.4495C88 10.9464 99.3098 0 113.261 0C127.212 0 138.522 10.9464 138.522 24.4495Z" fill="#393E46"/>
<path d="M390.522 68.4495C390.522 81.9527 379.212 92.8991 365.261 92.8991C351.31 92.8991 340 81.9527 340 68.4495C340 54.9464 351.31 44 365.261 44C379.212 44 390.522 54.9464 390.522 68.4495Z" fill="#393E46"/>
<path d="M351.031 107.49C363.842 107.124 374.229 118.762 372.035 133.393C369.638 149.386 365.238 165.05 358.935 179.911C349.172 202.931 335.081 223.46 317.657 240.049C300.233 256.637 279.902 268.88 258.1 275.911C236.299 282.942 213.559 284.59 191.488 280.739C169.417 276.888 148.554 267.632 130.372 253.624C112.19 239.617 97.1343 221.2 86.2679 199.675C75.4016 178.151 68.9901 154.044 67.4866 129.058C66.5153 112.917 67.6076 96.6634 70.6979 80.779C73.5203 66.2715 87.1703 58.846 99.1051 63.5283L110.725 68.0872C122.855 72.8459 128.457 88.3668 126.954 103.305C126.323 109.572 126.191 115.888 126.57 122.175C127.493 137.523 131.431 152.331 138.106 165.553C144.781 178.775 154.029 190.088 165.198 198.692C176.366 207.296 189.182 212.982 202.739 215.348C216.297 217.713 230.265 216.701 243.657 212.382C257.048 208.063 269.537 200.543 280.24 190.353C290.943 180.164 299.599 167.553 305.596 153.413C308.057 147.611 310.045 141.609 311.546 135.483C315.113 120.919 325.555 108.218 338.554 107.846L351.031 107.49Z" fill="#F38181"/>
</svg>
